<svg width="300" height="106" viewBox="0 0 300 106" fill="none" xmlns="http://www.w3.org/2000/svg">
<path d="M22.3 43H23.444V33.9H22.3V43ZM32.1136 43.117C33.1016 43.117 33.7646 42.662 34.1156 42.077H34.1676L34.3106 43H35.2596V33.38H34.1676V37.28H34.1156C33.7646 36.695 33.1016 36.24 32.1136 36.24C30.2416 36.24 29.3056 37.709 29.2926 39.672C29.3056 41.817 30.3716 43.117 32.1136 43.117ZM32.2956 42.142C30.9176 42.142 30.3976 41.011 30.3976 39.672C30.3976 38.346 30.9176 37.215 32.2956 37.215C33.6216 37.215 34.1936 38.359 34.1936 39.672C34.1936 40.998 33.6216 42.142 32.2956 42.142ZM39.9509 43.117C42.0309 43.117 42.9539 41.583 42.9539 39.685C42.9539 37.774 42.0049 36.24 39.9509 36.24C37.8969 36.24 36.9479 37.774 36.9479 39.685C36.9479 41.596 37.8709 43.117 39.9509 43.117ZM39.9509 42.142C38.6119 42.142 38.0529 41.115 38.0529 39.685C38.0529 38.268 38.5989 37.215 39.9509 37.215C41.3029 37.215 41.8489 38.255 41.8489 39.685C41.8489 41.115 41.3029 42.142 39.9509 42.142ZM44.7677 43H45.8597V39.334C45.8597 37.995 46.5097 37.215 47.6147 37.215C48.6677 37.215 49.1487 37.813 49.1487 38.853V43H50.2407V38.684C50.2407 37.163 49.3827 36.24 47.9137 36.24C46.8867 36.24 46.2107 36.721 45.8597 37.397H45.8077L45.7167 36.357H44.7677V43ZM51.4308 36.981H52.3148L53.1208 34.03V33.9H51.8338L51.4308 36.851V36.981ZM57.045 43.117C57.461 43.117 57.825 43.065 58.033 43.013V42.077H57.903C57.76 42.116 57.565 42.155 57.253 42.155C56.655 42.155 56.382 41.882 56.382 41.245V37.28H58.007V36.357H56.382V34.576H56.252L55.316 34.94V36.357H54.185V37.28H55.29V41.336C55.29 42.441 55.732 43.117 57.045 43.117ZM63.6837 43H64.7757V39.334C64.7757 37.995 65.4257 37.215 66.5307 37.215C67.5837 37.215 68.0647 37.813 68.0647 38.853V43H69.1567V38.684C69.1567 37.163 68.2987 36.24 66.8297 36.24C65.8027 36.24 65.1267 36.721 64.7757 37.397H64.7237L64.6327 36.357H63.6837V43ZM73.8603 43.117C75.2773 43.117 76.4473 42.298 76.6293 41.076H75.5373C75.3553 41.778 74.7313 42.142 73.8603 42.142C72.6253 42.142 71.9883 41.271 71.9883 40.01H76.7203V39.477C76.7203 37.631 75.7193 36.24 73.8473 36.24C71.7933 36.24 70.8443 37.761 70.8443 39.685C70.8443 41.635 71.8973 43.117 73.8603 43.117ZM72.0013 39.1C72.0403 38.06 72.5993 37.215 73.8473 37.215C75.0303 37.215 75.5893 38.047 75.5893 39.1H72.0013ZM81.0332 43.117C82.4502 43.117 83.6202 42.298 83.8022 41.076H82.7102C82.5282 41.778 81.9042 42.142 81.0332 42.142C79.7982 42.142 79.1612 41.271 79.1612 40.01H83.8932V39.477C83.8932 37.631 82.8922 36.24 81.0202 36.24C78.9662 36.24 78.0172 37.761 78.0172 39.685C78.0172 41.635 79.0702 43.117 81.0332 43.117ZM79.1742 39.1C79.2132 38.06 79.7722 37.215 81.0202 37.215C82.2032 37.215 82.7622 38.047 82.7622 39.1H79.1742ZM88.011 43.117C88.999 43.117 89.662 42.662 90.013 42.077H90.065L90.208 43H91.157V33.38H90.065V37.28H90.013C89.662 36.695 88.999 36.24 88.011 36.24C86.139 36.24 85.203 37.709 85.19 39.672C85.203 41.817 86.269 43.117 88.011 43.117ZM88.193 42.142C86.815 42.142 86.295 41.011 86.295 39.672C86.295 38.346 86.815 37.215 88.193 37.215C89.519 37.215 90.091 38.359 90.091 39.672C90.091 40.998 89.519 42.142 88.193 42.142ZM97.8088 35.083C98.3028 35.083 98.5628 34.784 98.5628 34.316C98.5628 33.861 98.3028 33.562 97.8088 33.562C97.3018 33.562 97.0548 33.861 97.0548 34.316C97.0548 34.784 97.3018 35.083 97.8088 35.083ZM97.2628 43H98.3548V36.357H97.2628V43ZM102.774 43.117C103.19 43.117 103.554 43.065 103.762 43.013V42.077H103.632C103.489 42.116 103.294 42.155 102.982 42.155C102.384 42.155 102.111 41.882 102.111 41.245V37.28H103.736V36.357H102.111V34.576H101.981L101.045 34.94V36.357H99.9136V37.28H101.019V41.336C101.019 42.441 101.461 43.117 102.774 43.117ZM111.206 43.117C112.142 43.117 112.883 42.74 113.286 42.064H113.338L113.416 43H114.339V38.528C114.339 37.267 113.442 36.24 111.739 36.24C110.283 36.24 109.217 37.085 109.217 38.359H110.27C110.283 37.722 110.764 37.176 111.739 37.176C112.818 37.176 113.273 37.813 113.273 38.554V39.217C112.857 39.1 112.337 38.983 111.635 38.983C109.685 38.983 108.892 39.945 108.892 41.063C108.892 42.22 109.763 43.117 111.206 43.117ZM111.401 42.207C110.439 42.207 109.997 41.713 109.997 41.05C109.997 40.27 110.556 39.854 111.635 39.854C112.22 39.854 112.727 39.919 113.273 40.088V40.426C113.273 41.388 112.532 42.207 111.401 42.207ZM116.547 43H117.639V39.334C117.639 37.995 118.289 37.215 119.394 37.215C120.447 37.215 120.928 37.813 120.928 38.853V43H122.02V38.684C122.02 37.163 121.162 36.24 119.693 36.24C118.666 36.24 117.99 36.721 117.639 37.397H117.587L117.496 36.357H116.547V43ZM124.738 45.977H125.843L129.522 36.487V36.357H128.378L126.428 41.57H126.376L124.361 36.357H123.191V36.487L125.856 42.922L125.869 42.948L124.738 45.847V45.977ZM138.236 36.24C137.118 36.24 136.442 36.721 136.091 37.397H136.039C135.688 36.669 134.999 36.24 134.037 36.24C133.01 36.24 132.399 36.721 132.048 37.397H131.996L131.905 36.357H130.956V43H132.048V39.334C132.048 37.995 132.698 37.215 133.738 37.215C134.752 37.215 135.207 37.839 135.207 38.853V43H136.299V39.334C136.299 37.995 136.923 37.215 137.963 37.215C138.977 37.215 139.432 37.839 139.432 38.853V43H140.524V38.684C140.524 37.189 139.705 36.24 138.236 36.24ZM145.22 43.117C147.3 43.117 148.223 41.583 148.223 39.685C148.223 37.774 147.274 36.24 145.22 36.24C143.166 36.24 142.217 37.774 142.217 39.685C142.217 41.596 143.14 43.117 145.22 43.117ZM145.22 42.142C143.881 42.142 143.322 41.115 143.322 39.685C143.322 38.268 143.868 37.215 145.22 37.215C146.572 37.215 147.118 38.255 147.118 39.685C147.118 41.115 146.572 42.142 145.22 42.142ZM150.037 43H151.129V39.776C151.129 38.216 151.701 37.332 152.962 37.332H153.482V36.279H152.884C152.065 36.279 151.402 36.734 151.129 37.475H151.077L150.986 36.357H150.037V43ZM157.345 43.117C158.762 43.117 159.932 42.298 160.114 41.076H159.022C158.84 41.778 158.216 42.142 157.345 42.142C156.11 42.142 155.473 41.271 155.473 40.01H160.205V39.477C160.205 37.631 159.204 36.24 157.332 36.24C155.278 36.24 154.329 37.761 154.329 39.685C154.329 41.635 155.382 43.117 157.345 43.117ZM155.486 39.1C155.525 38.06 156.084 37.215 157.332 37.215C158.515 37.215 159.074 38.047 159.074 39.1H155.486Z" fill="black"/>
<path d="M2.82 14H4.875L6.915 6.23H6.975L8.97 14H11.025L13.545 3.65V3.5H11.73L10.005 11.435H9.945L7.875 3.5H5.985L3.945 11.435H3.885L2.13 3.5H0.315V3.65L2.82 14ZM14.9524 14H16.6624V9.74C16.6624 8.45 17.4124 7.67 18.4774 7.67C19.5574 7.67 20.0674 8.285 20.0674 9.365V14H21.7774V8.945C21.7774 7.19 20.6974 6.125 18.9724 6.125C17.8624 6.125 17.1424 6.605 16.7224 7.265H16.6624V2.9H14.9524V14ZM24.6418 17.435H26.4418L30.5518 6.41V6.26H28.7368L26.7268 12.08H26.6668L24.6568 6.26H22.8718V6.41L25.6918 13.955L25.8718 13.97L24.6418 17.285V17.435ZM38.4413 14.135C39.4763 14.135 40.2713 13.745 40.7213 13.085H40.7813L40.9013 14H42.4013V8.84C42.4013 7.31 41.2463 6.125 39.2063 6.125C37.2563 6.125 36.1013 7.22 36.1013 8.69H37.7213C37.7363 8.06 38.2313 7.535 39.1763 7.535C40.2563 7.535 40.7063 8.135 40.7063 8.855V9.575C40.3013 9.455 39.6113 9.32 38.9062 9.32C36.6863 9.32 35.7413 10.37 35.7413 11.72C35.7413 13.085 36.7313 14.135 38.4413 14.135ZM38.8313 12.77C37.9013 12.77 37.4513 12.29 37.4513 11.66C37.4513 10.97 37.9913 10.55 39.0263 10.55C39.5963 10.55 40.1363 10.625 40.7063 10.82V11.075C40.7063 11.99 39.9713 12.77 38.8313 12.77ZM44.4397 14H46.0897V10.22C46.0897 8.645 46.7647 7.745 48.0697 7.745H48.7297V6.155H48.0997C47.1247 6.155 46.4047 6.695 46.0897 7.49H46.0297L45.8797 6.26H44.4397V14ZM53.2733 14.135C55.1183 14.135 56.4233 13.055 56.6333 11.645H54.9683C54.7883 12.275 54.2183 12.695 53.2733 12.695C52.0133 12.695 51.3833 11.84 51.3833 10.61H56.7383V9.89C56.7383 7.76 55.5083 6.125 53.2433 6.125C50.7983 6.125 49.6133 7.91 49.6133 10.13C49.6133 12.38 50.9183 14.135 53.2733 14.135ZM51.3983 9.395C51.4433 8.39 51.9983 7.58 53.2433 7.58C54.4133 7.58 54.9683 8.375 54.9833 9.395H51.3983ZM63.7092 17.435H65.5092L69.6192 6.41V6.26H67.8042L65.7942 12.08H65.7342L63.7242 6.26H61.9392V6.41L64.7592 13.955L64.9392 13.97L63.7092 17.285V17.435ZM73.9276 14.135C76.3876 14.135 77.5876 12.395 77.5876 10.13C77.5876 7.865 76.3576 6.125 73.9276 6.125C71.4976 6.125 70.2676 7.865 70.2676 10.13C70.2676 12.41 71.4676 14.135 73.9276 14.135ZM73.9276 12.62C72.6376 12.62 72.0076 11.69 72.0076 10.13C72.0076 8.6 72.6226 7.64 73.9276 7.64C75.2326 7.64 75.8476 8.585 75.8476 10.13C75.8476 11.69 75.2326 12.62 73.9276 12.62ZM84.1337 6.26V10.79C84.1337 11.87 83.6687 12.545 82.5137 12.545C81.3587 12.545 80.8937 11.87 80.8937 10.79V6.26H79.1837V11.06C79.1837 12.785 80.3537 14.12 82.5137 14.12C84.6887 14.12 85.8437 12.785 85.8437 11.06V6.26H84.1337ZM95.0258 14.135C96.1508 14.135 96.8558 13.655 97.2458 13.07H97.3058L97.5008 14H99.0158V2.9H97.3058V7.19H97.2458C96.8558 6.605 96.1508 6.125 95.0258 6.125C92.9408 6.125 91.8158 7.82 91.8008 10.115C91.8158 12.545 93.0308 14.135 95.0258 14.135ZM95.4458 12.62C94.0508 12.62 93.5408 11.48 93.5408 10.115C93.5408 8.78 94.0358 7.64 95.4458 7.64C96.8258 7.64 97.3658 8.78 97.3658 10.115C97.3658 11.465 96.8108 12.62 95.4458 12.62ZM104.206 14.135C106.051 14.135 107.356 13.055 107.566 11.645H105.901C105.721 12.275 105.151 12.695 104.206 12.695C102.946 12.695 102.316 11.84 102.316 10.61H107.671V9.89C107.671 7.76 106.441 6.125 104.176 6.125C101.731 6.125 100.546 7.91 100.546 10.13C100.546 12.38 101.851 14.135 104.206 14.135ZM102.331 9.395C102.376 8.39 102.931 7.58 104.176 7.58C105.346 7.58 105.901 8.375 105.916 9.395H102.331ZM109.362 14H111.072V2.9H109.362V14ZM116.262 14.135C118.107 14.135 119.412 13.055 119.622 11.645H117.957C117.777 12.275 117.207 12.695 116.262 12.695C115.002 12.695 114.372 11.84 114.372 10.61H119.727V9.89C119.727 7.76 118.497 6.125 116.232 6.125C113.787 6.125 112.602 7.91 112.602 10.13C112.602 12.38 113.907 14.135 116.262 14.135ZM114.387 9.395C114.432 8.39 114.987 7.58 116.232 7.58C117.402 7.58 117.957 8.375 117.972 9.395H114.387ZM124.357 14.135C124.942 14.135 125.437 14.045 125.677 13.97V12.53H125.527C125.332 12.59 125.092 12.635 124.777 12.635C124.087 12.635 123.772 12.32 123.772 11.585V7.715H125.647V6.26H123.772V4.205H123.622L122.137 4.625V6.26H120.787V7.715H122.062V11.885C122.062 13.22 122.707 14.135 124.357 14.135ZM128.307 5.075C129.012 5.075 129.402 4.655 129.402 3.995C129.402 3.335 129.012 2.93 128.307 2.93C127.587 2.93 127.212 3.335 127.212 3.995C127.212 4.655 127.587 5.075 128.307 5.075ZM127.452 14H129.162V6.26H127.452V14ZM131.202 14H132.912V9.725C132.912 8.435 133.602 7.67 134.682 7.67C135.762 7.67 136.257 8.285 136.257 9.365V14H137.967V8.945C137.967 7.19 136.902 6.125 135.177 6.125C134.067 6.125 133.332 6.605 132.912 7.265H132.852L132.717 6.26H131.202V14ZM143.126 17.57C145.316 17.57 146.711 16.265 146.711 14.42V6.26H145.196L145.001 7.19H144.941C144.551 6.605 143.846 6.125 142.721 6.125C140.726 6.125 139.511 7.715 139.496 10.13C139.511 12.44 140.636 14.135 142.721 14.135C143.846 14.135 144.551 13.655 144.941 13.07H145.001V14.39C145.001 15.35 144.401 16.1 143.126 16.1C142.016 16.1 141.446 15.485 141.386 14.84H139.721C139.766 16.445 141.101 17.57 143.126 17.57ZM143.141 12.62C141.731 12.62 141.236 11.48 141.236 10.13C141.236 8.78 141.746 7.64 143.141 7.64C144.506 7.64 145.061 8.795 145.061 10.13C145.061 11.465 144.521 12.62 143.141 12.62ZM154.031 17.435H155.831L159.941 6.41V6.26H158.126L156.116 12.08H156.056L154.046 6.26H152.261V6.41L155.081 13.955L155.261 13.97L154.031 17.285V17.435ZM164.25 14.135C166.71 14.135 167.91 12.395 167.91 10.13C167.91 7.865 166.68 6.125 164.25 6.125C161.82 6.125 160.59 7.865 160.59 10.13C160.59 12.41 161.79 14.135 164.25 14.135ZM164.25 12.62C162.96 12.62 162.33 11.69 162.33 10.13C162.33 8.6 162.945 7.64 164.25 7.64C165.555 7.64 166.17 8.585 166.17 10.13C166.17 11.69 165.555 12.62 164.25 12.62ZM174.456 6.26V10.79C174.456 11.87 173.991 12.545 172.836 12.545C171.681 12.545 171.216 11.87 171.216 10.79V6.26H169.506V11.06C169.506 12.785 170.676 14.12 172.836 14.12C175.011 14.12 176.166 12.785 176.166 11.06V6.26H174.456ZM178.268 14H179.918V10.22C179.918 8.645 180.593 7.745 181.898 7.745H182.558V6.155H181.928C180.953 6.155 180.233 6.695 179.918 7.49H179.858L179.708 6.26H178.268V14ZM190.668 14.135C191.703 14.135 192.498 13.745 192.948 13.085H193.008L193.128 14H194.628V8.84C194.628 7.31 193.473 6.125 191.433 6.125C189.483 6.125 188.328 7.22 188.328 8.69H189.948C189.963 8.06 190.458 7.535 191.403 7.535C192.483 7.535 192.933 8.135 192.933 8.855V9.575C192.528 9.455 191.838 9.32 191.133 9.32C188.913 9.32 187.968 10.37 187.968 11.72C187.968 13.085 188.958 14.135 190.668 14.135ZM191.058 12.77C190.128 12.77 189.678 12.29 189.678 11.66C189.678 10.97 190.218 10.55 191.253 10.55C191.823 10.55 192.363 10.625 192.933 10.82V11.075C192.933 11.99 192.198 12.77 191.058 12.77ZM199.846 14.135C201.961 14.135 203.041 12.905 203.176 11.195H201.466C201.376 12.08 200.776 12.635 199.801 12.635C198.481 12.635 197.896 11.66 197.896 10.13C197.896 8.63 198.481 7.64 199.801 7.64C200.761 7.64 201.376 8.21 201.451 9.08H203.161C203.056 7.415 201.976 6.125 199.801 6.125C197.431 6.125 196.156 7.745 196.156 10.13C196.156 12.53 197.461 14.135 199.846 14.135ZM208.035 14.135C210.15 14.135 211.23 12.905 211.365 11.195H209.655C209.565 12.08 208.965 12.635 207.99 12.635C206.67 12.635 206.085 11.66 206.085 10.13C206.085 8.63 206.67 7.64 207.99 7.64C208.95 7.64 209.565 8.21 209.64 9.08H211.35C211.245 7.415 210.165 6.125 207.99 6.125C205.62 6.125 204.345 7.745 204.345 10.13C204.345 12.53 205.65 14.135 208.035 14.135ZM216.193 14.135C218.653 14.135 219.853 12.395 219.853 10.13C219.853 7.865 218.623 6.125 216.193 6.125C213.763 6.125 212.533 7.865 212.533 10.13C212.533 12.41 213.733 14.135 216.193 14.135ZM216.193 12.62C214.903 12.62 214.273 11.69 214.273 10.13C214.273 8.6 214.888 7.64 216.193 7.64C217.498 7.64 218.113 8.585 218.113 10.13C218.113 11.69 217.498 12.62 216.193 12.62ZM226.399 6.26V10.79C226.399 11.87 225.934 12.545 224.779 12.545C223.624 12.545 223.159 11.87 223.159 10.79V6.26H221.449V11.06C221.449 12.785 222.619 14.12 224.779 14.12C226.954 14.12 228.109 12.785 228.109 11.06V6.26H226.399ZM230.211 14H231.921V9.725C231.921 8.435 232.611 7.67 233.691 7.67C234.771 7.67 235.266 8.285 235.266 9.365V14H236.976V8.945C236.976 7.19 235.911 6.125 234.186 6.125C233.076 6.125 232.341 6.605 231.921 7.265H231.861L231.726 6.26H230.211V14ZM241.955 14.135C242.54 14.135 243.035 14.045 243.275 13.97V12.53H243.125C242.93 12.59 242.69 12.635 242.375 12.635C241.685 12.635 241.37 12.32 241.37 11.585V7.715H243.245V6.26H241.37V4.205H241.22L239.735 4.625V6.26H238.385V7.715H239.66V11.885C239.66 13.22 240.305 14.135 241.955 14.135ZM247.015 10.67H248.665V10.43C248.665 9.725 248.965 9.455 249.625 8.945L250.255 8.45C250.975 7.895 251.395 7.145 251.395 6.155C251.395 4.52 250.09 3.35 248.065 3.35C245.755 3.35 244.66 4.775 244.66 6.515H246.4C246.4 5.495 246.94 4.865 248.065 4.865C249.145 4.865 249.625 5.51 249.625 6.23C249.61 6.86 249.34 7.22 248.845 7.61L248.365 7.985C247.51 8.66 247.015 9.155 247.015 10.43V10.67ZM247.87 14.135C248.56 14.135 248.95 13.7 248.95 13.04C248.95 12.38 248.56 11.945 247.87 11.945C247.15 11.945 246.79 12.38 246.79 13.04C246.79 13.7 247.15 14.135 247.87 14.135Z" fill="black"/>
<circle cx="8" cy="38" r="5.5" stroke="#CF3881"/>
<circle cx="8" cy="38" r="2.5" fill="#CF3881" stroke="#CF3881"/>
<path d="M22.3 63H23.444V53.9H22.3V63ZM28.1251 63.117C28.5411 63.117 28.9051 63.065 29.1131 63.013V62.077H28.9831C28.8401 62.116 28.6451 62.155 28.3331 62.155C27.7351 62.155 27.4621 61.882 27.4621 61.245V57.28H29.0871V56.357H27.4621V54.576H27.3321L26.3961 54.94V56.357H25.2651V57.28H26.3701V61.336C26.3701 62.441 26.8121 63.117 28.1251 63.117ZM30.2423 56.981H31.1263L31.9323 54.03V53.9H30.6453L30.2423 56.851V56.981ZM35.0691 63.117C36.4991 63.117 37.6951 62.415 37.6951 61.193C37.6951 60.049 37.0581 59.555 35.8101 59.269L34.7701 59.074C34.0421 58.957 33.6131 58.658 33.6131 58.138C33.6131 57.488 34.1721 57.163 34.9781 57.163C35.8101 57.163 36.4341 57.54 36.4731 58.385H37.5391C37.5391 57.059 36.4731 56.24 34.9781 56.24C33.5091 56.24 32.5601 57.033 32.5601 58.138C32.5601 59.113 33.1581 59.776 34.2501 59.997L35.5761 60.244C36.2911 60.4 36.5901 60.751 36.5901 61.193C36.5901 61.83 36.0051 62.142 35.0691 62.142C34.1201 62.142 33.4441 61.687 33.4441 60.803H32.3521C32.3911 62.259 33.4961 63.117 35.0691 63.117ZM45.6193 63.117C46.0353 63.117 46.3993 63.065 46.6073 63.013V62.077H46.4773C46.3343 62.116 46.1393 62.155 45.8273 62.155C45.2293 62.155 44.9563 61.882 44.9563 61.245V57.28H46.5813V56.357H44.9563V54.576H44.8263L43.8903 54.94V56.357H42.7593V57.28H43.8643V61.336C43.8643 62.441 44.3063 63.117 45.6193 63.117ZM50.8434 63.117C52.9234 63.117 53.8464 61.583 53.8464 59.685C53.8464 57.774 52.8974 56.24 50.8434 56.24C48.7894 56.24 47.8404 57.774 47.8404 59.685C47.8404 61.596 48.7634 63.117 50.8434 63.117ZM50.8434 62.142C49.5044 62.142 48.9454 61.115 48.9454 59.685C48.9454 58.268 49.4914 57.215 50.8434 57.215C52.1954 57.215 52.7414 58.255 52.7414 59.685C52.7414 61.115 52.1954 62.142 50.8434 62.142ZM58.1432 63.117C60.2232 63.117 61.1462 61.583 61.1462 59.685C61.1462 57.774 60.1972 56.24 58.1432 56.24C56.0892 56.24 55.1402 57.774 55.1402 59.685C55.1402 61.596 56.0632 63.117 58.1432 63.117ZM58.1432 62.142C56.8042 62.142 56.2452 61.115 56.2452 59.685C56.2452 58.268 56.7912 57.215 58.1432 57.215C59.4952 57.215 60.0412 58.255 60.0412 59.685C60.0412 61.115 59.4952 62.142 58.1432 62.142ZM69.3535 63.117C70.7705 63.117 71.9405 62.298 72.1225 61.076H71.0305C70.8485 61.778 70.2245 62.142 69.3535 62.142C68.1185 62.142 67.4815 61.271 67.4815 60.01H72.2135V59.477C72.2135 57.631 71.2125 56.24 69.3405 56.24C67.2865 56.24 66.3375 57.761 66.3375 59.685C66.3375 61.635 67.3905 63.117 69.3535 63.117ZM67.4945 59.1C67.5335 58.06 68.0925 57.215 69.3405 57.215C70.5235 57.215 71.0825 58.047 71.0825 59.1H67.4945ZM72.8634 63H74.0204L75.8664 60.374H75.9184L77.7384 63H78.8824V62.87L76.5814 59.633L78.8434 56.487V56.357H77.6604L75.9184 58.918H75.8664L74.1114 56.357H72.9414V56.487L75.1904 59.659L72.8634 62.87V63ZM80.1876 65.977H81.2796V62.077H81.3316C81.6826 62.662 82.3456 63.117 83.3336 63.117C85.2056 63.117 86.1416 61.648 86.1546 59.685C86.1416 57.54 85.0756 56.24 83.3336 56.24C82.3456 56.24 81.6826 56.695 81.3316 57.28H81.2796L81.1366 56.357H80.1876V65.977ZM83.1516 62.142C81.8256 62.142 81.2536 60.998 81.2536 59.685C81.2536 58.359 81.8256 57.215 83.1516 57.215C84.5296 57.215 85.0496 58.346 85.0496 59.685C85.0496 61.011 84.5296 62.142 83.1516 62.142ZM90.4658 63.117C91.8828 63.117 93.0528 62.298 93.2348 61.076H92.1428C91.9608 61.778 91.3368 62.142 90.4658 62.142C89.2308 62.142 88.5938 61.271 88.5938 60.01H93.3258V59.477C93.3258 57.631 92.3248 56.24 90.4528 56.24C88.3988 56.24 87.4498 57.761 87.4498 59.685C87.4498 61.635 88.5028 63.117 90.4658 63.117ZM88.6068 59.1C88.6458 58.06 89.2048 57.215 90.4528 57.215C91.6358 57.215 92.1948 58.047 92.1948 59.1H88.6068ZM95.1427 63H96.2347V59.334C96.2347 57.995 96.8847 57.215 97.9897 57.215C99.0427 57.215 99.5237 57.813 99.5237 58.853V63H100.616V58.684C100.616 57.163 99.7577 56.24 98.2887 56.24C97.2617 56.24 96.5857 56.721 96.2347 57.397H96.1827L96.0917 56.357H95.1427V63ZM105.02 63.117C106.45 63.117 107.646 62.415 107.646 61.193C107.646 60.049 107.009 59.555 105.761 59.269L104.721 59.074C103.993 58.957 103.564 58.658 103.564 58.138C103.564 57.488 104.123 57.163 104.929 57.163C105.761 57.163 106.385 57.54 106.424 58.385H107.49C107.49 57.059 106.424 56.24 104.929 56.24C103.46 56.24 102.511 57.033 102.511 58.138C102.511 59.113 103.109 59.776 104.201 59.997L105.527 60.244C106.242 60.4 106.541 60.751 106.541 61.193C106.541 61.83 105.956 62.142 105.02 62.142C104.071 62.142 103.395 61.687 103.395 60.803H102.303C102.342 62.259 103.447 63.117 105.02 63.117ZM110.009 55.083C110.503 55.083 110.763 54.784 110.763 54.316C110.763 53.861 110.503 53.562 110.009 53.562C109.502 53.562 109.255 53.861 109.255 54.316C109.255 54.784 109.502 55.083 110.009 55.083ZM109.463 63H110.555V56.357H109.463V63ZM114.467 63H115.598L118.172 56.487V56.357H117.041L115.078 61.726H115.026L112.985 56.357H111.854V56.487L114.467 63ZM121.912 63.117C123.329 63.117 124.499 62.298 124.681 61.076H123.589C123.407 61.778 122.783 62.142 121.912 62.142C120.677 62.142 120.04 61.271 120.04 60.01H124.772V59.477C124.772 57.631 123.771 56.24 121.899 56.24C119.845 56.24 118.896 57.761 118.896 59.685C118.896 61.635 119.949 63.117 121.912 63.117ZM120.053 59.1C120.092 58.06 120.651 57.215 121.899 57.215C123.082 57.215 123.641 58.047 123.641 59.1H120.053Z" fill="black"/>
<circle cx="8" cy="58" r="5.5" stroke="#CF3881"/>
<path d="M22.3 83H23.444V73.9H22.3V83ZM25.2911 76.981H26.1751L26.9811 74.03V73.9H25.6941L25.2911 76.851V76.981ZM35.5818 76.24C34.4638 76.24 33.7878 76.721 33.4368 77.397H33.3848C33.0338 76.669 32.3448 76.24 31.3828 76.24C30.3558 76.24 29.7448 76.721 29.3938 77.397H29.3418L29.2508 76.357H28.3018V83H29.3938V79.334C29.3938 77.995 30.0438 77.215 31.0838 77.215C32.0978 77.215 32.5528 77.839 32.5528 78.853V83H33.6448V79.334C33.6448 77.995 34.2688 77.215 35.3088 77.215C36.3228 77.215 36.7778 77.839 36.7778 78.853V83H37.8698V78.684C37.8698 77.189 37.0508 76.24 35.5818 76.24ZM46.1775 83.117C47.6075 83.117 48.8035 82.415 48.8035 81.193C48.8035 80.049 48.1665 79.555 46.9185 79.269L45.8785 79.074C45.1505 78.957 44.7215 78.658 44.7215 78.138C44.7215 77.488 45.2805 77.163 46.0865 77.163C46.9185 77.163 47.5425 77.54 47.5815 78.385H48.6475C48.6475 77.059 47.5815 76.24 46.0865 76.24C44.6175 76.24 43.6685 77.033 43.6685 78.138C43.6685 79.113 44.2665 79.776 45.3585 79.997L46.6845 80.244C47.3995 80.4 47.6985 80.751 47.6985 81.193C47.6985 81.83 47.1135 82.142 46.1775 82.142C45.2285 82.142 44.5525 81.687 44.5525 80.803H43.4605C43.4995 82.259 44.6045 83.117 46.1775 83.117ZM51.5952 83H52.7262L54.3252 77.839H54.3772L55.9372 83H57.0682L58.9402 76.487V76.357H57.8352L56.5092 81.518H56.4572L54.8972 76.357H53.7792L52.2192 81.518H52.1672L50.8412 76.357H49.7102V76.487L51.5952 83ZM60.9162 75.083C61.4102 75.083 61.6702 74.784 61.6702 74.316C61.6702 73.861 61.4102 73.562 60.9162 73.562C60.4092 73.562 60.1622 73.861 60.1622 74.316C60.1622 74.784 60.4092 75.083 60.9162 75.083ZM60.3702 83H61.4622V76.357H60.3702V83ZM65.881 83.117C66.297 83.117 66.661 83.065 66.869 83.013V82.077H66.739C66.596 82.116 66.401 82.155 66.089 82.155C65.491 82.155 65.218 81.882 65.218 81.245V77.28H66.843V76.357H65.218V74.576H65.088L64.152 74.94V76.357H63.021V77.28H64.126V81.336C64.126 82.441 64.568 83.117 65.881 83.117ZM71.1181 83.117C72.8471 83.117 73.7311 82.168 73.8611 80.764H72.7691C72.6781 81.648 72.0931 82.155 71.1051 82.155C69.7401 82.155 69.2071 81.076 69.2071 79.685C69.2071 78.32 69.7401 77.215 71.1051 77.215C72.0671 77.215 72.6781 77.748 72.7431 78.632H73.8351C73.7441 77.293 72.8861 76.24 71.1051 76.24C69.1291 76.24 68.1021 77.618 68.1021 79.685C68.1021 81.778 69.1291 83.117 71.1181 83.117ZM75.6807 83H76.7727V79.36C76.7727 78.021 77.4747 77.215 78.5537 77.215C79.6067 77.215 80.1137 77.813 80.1137 78.853V83H81.2057V78.684C81.2057 77.163 80.3217 76.24 78.8527 76.24C77.8257 76.24 77.1757 76.721 76.8247 77.397H76.7727V73.38H75.6807V83ZM83.9582 75.083C84.4522 75.083 84.7122 74.784 84.7122 74.316C84.7122 73.861 84.4522 73.562 83.9582 73.562C83.4512 73.562 83.2042 73.861 83.2042 74.316C83.2042 74.784 83.4512 75.083 83.9582 75.083ZM83.4122 83H84.5042V76.357H83.4122V83ZM86.713 83H87.805V79.334C87.805 77.995 88.455 77.215 89.56 77.215C90.613 77.215 91.094 77.813 91.094 78.853V83H92.186V78.684C92.186 77.163 91.328 76.24 89.859 76.24C88.832 76.24 88.156 76.721 87.805 77.397H87.753L87.662 76.357H86.713V83ZM96.9026 86.094C98.8006 86.094 99.8406 84.911 99.8406 83.39V76.357H98.8916L98.7486 77.28H98.6966C98.3456 76.695 97.6826 76.24 96.6946 76.24C94.9526 76.24 93.8866 77.54 93.8736 79.685C93.8866 81.648 94.8226 83.117 96.6946 83.117C97.6826 83.117 98.3456 82.662 98.6966 82.077H98.7486V83.364C98.7486 84.365 98.1766 85.158 96.9026 85.158C95.6806 85.158 95.1736 84.482 95.1216 83.845H94.0686C94.1076 85.119 95.1996 86.094 96.9026 86.094ZM96.8766 82.142C95.4986 82.142 94.9786 81.011 94.9786 79.685C94.9786 78.346 95.4986 77.215 96.8766 77.215C98.2026 77.215 98.7746 78.359 98.7746 79.685C98.7746 80.998 98.2026 82.142 96.8766 82.142ZM108.156 83.117C108.572 83.117 108.936 83.065 109.144 83.013V82.077H109.014C108.871 82.116 108.676 82.155 108.364 82.155C107.766 82.155 107.493 81.882 107.493 81.245V77.28H109.118V76.357H107.493V74.576H107.363L106.427 74.94V76.357H105.296V77.28H106.401V81.336C106.401 82.441 106.843 83.117 108.156 83.117ZM113.381 83.117C115.461 83.117 116.384 81.583 116.384 79.685C116.384 77.774 115.435 76.24 113.381 76.24C111.327 76.24 110.378 77.774 110.378 79.685C110.378 81.596 111.301 83.117 113.381 83.117ZM113.381 82.142C112.042 82.142 111.483 81.115 111.483 79.685C111.483 78.268 112.029 77.215 113.381 77.215C114.733 77.215 115.279 78.255 115.279 79.685C115.279 81.115 114.733 82.142 113.381 82.142ZM124.292 83.117C125.722 83.117 126.918 82.415 126.918 81.193C126.918 80.049 126.281 79.555 125.033 79.269L123.993 79.074C123.265 78.957 122.836 78.658 122.836 78.138C122.836 77.488 123.395 77.163 124.201 77.163C125.033 77.163 125.657 77.54 125.696 78.385H126.762C126.762 77.059 125.696 76.24 124.201 76.24C122.732 76.24 121.783 77.033 121.783 78.138C121.783 79.113 122.381 79.776 123.473 79.997L124.799 80.244C125.514 80.4 125.813 80.751 125.813 81.193C125.813 81.83 125.228 82.142 124.292 82.142C123.343 82.142 122.667 81.687 122.667 80.803H121.575C121.614 82.259 122.719 83.117 124.292 83.117ZM131.217 83.117C133.297 83.117 134.22 81.583 134.22 79.685C134.22 77.774 133.271 76.24 131.217 76.24C129.163 76.24 128.214 77.774 128.214 79.685C128.214 81.596 129.137 83.117 131.217 83.117ZM131.217 82.142C129.878 82.142 129.319 81.115 129.319 79.685C129.319 78.268 129.865 77.215 131.217 77.215C132.569 77.215 133.115 78.255 133.115 79.685C133.115 81.115 132.569 82.142 131.217 82.142ZM143.314 76.24C142.196 76.24 141.52 76.721 141.169 77.397H141.117C140.766 76.669 140.077 76.24 139.115 76.24C138.088 76.24 137.477 76.721 137.126 77.397H137.074L136.983 76.357H136.034V83H137.126V79.334C137.126 77.995 137.776 77.215 138.816 77.215C139.83 77.215 140.285 77.839 140.285 78.853V83H141.377V79.334C141.377 77.995 142.001 77.215 143.041 77.215C144.055 77.215 144.51 77.839 144.51 78.853V83H145.602V78.684C145.602 77.189 144.783 76.24 143.314 76.24ZM150.312 83.117C151.729 83.117 152.899 82.298 153.081 81.076H151.989C151.807 81.778 151.183 82.142 150.312 82.142C149.077 82.142 148.44 81.271 148.44 80.01H153.172V79.477C153.172 77.631 152.171 76.24 150.299 76.24C148.245 76.24 147.296 77.761 147.296 79.685C147.296 81.635 148.349 83.117 150.312 83.117ZM148.453 79.1C148.492 78.06 149.051 77.215 150.299 77.215C151.482 77.215 152.041 78.047 152.041 79.1H148.453ZM157.471 83.117C159.551 83.117 160.474 81.583 160.474 79.685C160.474 77.774 159.525 76.24 157.471 76.24C155.417 76.24 154.468 77.774 154.468 79.685C154.468 81.596 155.391 83.117 157.471 83.117ZM157.471 82.142C156.132 82.142 155.573 81.115 155.573 79.685C155.573 78.268 156.119 77.215 157.471 77.215C158.823 77.215 159.369 78.255 159.369 79.685C159.369 81.115 158.823 82.142 157.471 82.142ZM162.288 83H163.38V79.334C163.38 77.995 164.03 77.215 165.135 77.215C166.188 77.215 166.669 77.813 166.669 78.853V83H167.761V78.684C167.761 77.163 166.903 76.24 165.434 76.24C164.407 76.24 163.731 76.721 163.38 77.397H163.328L163.237 76.357H162.288V83ZM172.465 83.117C173.882 83.117 175.052 82.298 175.234 81.076H174.142C173.96 81.778 173.336 82.142 172.465 82.142C171.23 82.142 170.593 81.271 170.593 80.01H175.325V79.477C175.325 77.631 174.324 76.24 172.452 76.24C170.398 76.24 169.449 77.761 169.449 79.685C169.449 81.635 170.502 83.117 172.465 83.117ZM170.606 79.1C170.645 78.06 171.204 77.215 172.452 77.215C173.635 77.215 174.194 78.047 174.194 79.1H170.606ZM183.535 83.117C184.952 83.117 186.122 82.298 186.304 81.076H185.212C185.03 81.778 184.406 82.142 183.535 82.142C182.3 82.142 181.663 81.271 181.663 80.01H186.395V79.477C186.395 77.631 185.394 76.24 183.522 76.24C181.468 76.24 180.519 77.761 180.519 79.685C180.519 81.635 181.572 83.117 183.535 83.117ZM181.676 79.1C181.715 78.06 182.274 77.215 183.522 77.215C184.705 77.215 185.264 78.047 185.264 79.1H181.676ZM188.212 83H189.304V73.38H188.212V83ZM193.71 83.117C195.14 83.117 196.336 82.415 196.336 81.193C196.336 80.049 195.699 79.555 194.451 79.269L193.411 79.074C192.683 78.957 192.254 78.658 192.254 78.138C192.254 77.488 192.813 77.163 193.619 77.163C194.451 77.163 195.075 77.54 195.114 78.385H196.18C196.18 77.059 195.114 76.24 193.619 76.24C192.15 76.24 191.201 77.033 191.201 78.138C191.201 79.113 191.799 79.776 192.891 79.997L194.217 80.244C194.932 80.4 195.231 80.751 195.231 81.193C195.231 81.83 194.646 82.142 193.71 82.142C192.761 82.142 192.085 81.687 192.085 80.803H190.993C191.032 82.259 192.137 83.117 193.71 83.117ZM200.648 83.117C202.065 83.117 203.235 82.298 203.417 81.076H202.325C202.143 81.778 201.519 82.142 200.648 82.142C199.413 82.142 198.776 81.271 198.776 80.01H203.508V79.477C203.508 77.631 202.507 76.24 200.635 76.24C198.581 76.24 197.632 77.761 197.632 79.685C197.632 81.635 198.685 83.117 200.648 83.117ZM198.789 79.1C198.828 78.06 199.387 77.215 200.635 77.215C201.818 77.215 202.377 78.047 202.377 79.1H198.789Z" fill="black"/>
<circle cx="8" cy="78" r="5.5" stroke="#CF3881"/>
<path d="M25.81 103.117C28.605 103.117 29.84 101.05 29.84 98.45C29.84 95.837 28.605 93.783 25.81 93.783C23.002 93.783 21.78 95.837 21.78 98.45C21.78 101.05 23.002 103.117 25.81 103.117ZM25.81 102.051C23.652 102.051 22.95 100.283 22.95 98.45C22.95 96.617 23.639 94.849 25.81 94.849C27.968 94.849 28.67 96.617 28.67 98.45C28.67 100.283 27.968 102.051 25.81 102.051ZM34.003 103.117C34.419 103.117 34.783 103.065 34.991 103.013V102.077H34.861C34.718 102.116 34.523 102.155 34.211 102.155C33.613 102.155 33.34 101.882 33.34 101.245V97.28H34.965V96.357H33.34V94.576H33.21L32.274 94.94V96.357H31.143V97.28H32.248V101.336C32.248 102.441 32.69 103.117 34.003 103.117ZM36.7442 103H37.8362V99.36C37.8362 98.021 38.5382 97.215 39.6172 97.215C40.6702 97.215 41.1772 97.813 41.1772 98.853V103H42.2692V98.684C42.2692 97.163 41.3852 96.24 39.9162 96.24C38.8892 96.24 38.2392 96.721 37.8882 97.397H37.8362V93.38H36.7442V103ZM46.9717 103.117C48.3887 103.117 49.5587 102.298 49.7407 101.076H48.6487C48.4667 101.778 47.8427 102.142 46.9717 102.142C45.7367 102.142 45.0997 101.271 45.0997 100.01H49.8317V99.477C49.8317 97.631 48.8307 96.24 46.9587 96.24C44.9047 96.24 43.9557 97.761 43.9557 99.685C43.9557 101.635 45.0087 103.117 46.9717 103.117ZM45.1127 99.1C45.1517 98.06 45.7107 97.215 46.9587 97.215C48.1417 97.215 48.7007 98.047 48.7007 99.1H45.1127ZM51.6485 103H52.7405V99.776C52.7405 98.216 53.3125 97.332 54.5735 97.332H55.0935V96.279H54.4955C53.6765 96.279 53.0135 96.734 52.7405 97.475H52.6885L52.5975 96.357H51.6485V103Z" fill="black"/>
<circle cx="8" cy="98" r="5.5" stroke="#CF3881"/>
</svg>
